Coordinates
version=1
nRows=19
nColumns=36
inDegrees=yes

Units are S.I. units (second, meters, Newtons, ...)
If the header above contains a line with 'inDegrees', this indicates whether rotational values are in degrees (yes) or radians (no).

endheader
time	pelvis_tilt	pelvis_list	pelvis_rotation	pelvis_tx	pelvis_ty	pelvis_tz	hip_flexion_r	hip_adduction_r	hip_rotation_r	knee_angle_r	knee_angle_r_beta	ankle_angle_r	subtalar_angle_r	mtp_angle_r	hip_flexion_l	hip_adduction_l	hip_rotation_l	knee_angle_l	knee_angle_l_beta	ankle_angle_l	subtalar_angle_l	mtp_angle_l	lumbar_extension	lumbar_bending	lumbar_rotation	arm_flex_r	arm_add_r	arm_rot_r	elbow_flex_r	pro_sup_r	arm_flex_l	arm_add_l	arm_rot_l	elbow_flex_l	pro_sup_l
      6.69000000	    -41.44465426	      3.04744423	      3.47965692	     -0.38389241	      0.65692781	     -0.53484702	    106.53113684	     -5.83245832	      4.35871475	     84.76582424	      1.47944273	     24.78882126	    -12.40512106	     -7.49999987	    104.13855282	    -13.62049937	     -2.80362106	     77.33106493	      1.34968170	     17.13899719	     -1.80858059	     -7.49999987	    -34.58689747	      2.68445352	      2.77621764	    109.01811705	    -10.44494031	     37.89533615	    123.81160699	    115.81617109	     99.74337074	     -4.36337518	     24.84539300	    129.51295271	    114.95769326
      6.70000000	    -41.48417085	      2.98528129	      3.36952403	     -0.38405970	      0.65643136	     -0.53439041	    106.59863754	     -5.66784395	      4.28603767	     84.79658807	      1.47997966	     24.78830179	    -12.42489513	     -7.49999987	    104.28107977	    -13.73163486	     -2.64994912	     77.40374178	      1.35095015	     17.08461513	     -1.94903233	     -7.49999987	    -34.66179593	      2.62203833	      2.83958594	    108.97247565	    -10.31846384	     37.77258469	    123.78993554	    115.88340401	     99.78545400	     -4.38108538	     24.91466570	    129.60784144	    114.81173492
      6.71000000	    -41.50072917	      2.95491876	      3.28067235	     -0.38419009	      0.65598530	     -0.53398962	    106.66140719	     -5.54123712	      4.23616155	     84.85161142	      1.48093999	     24.75280673	    -12.51277908	     -7.49999987	    104.38208928	    -13.84132063	     -2.56419556	     77.48647893	      1.35239418	     17.12167810	     -1.95419256	     -7.49999987	    -34.72793541	      2.54824695	      2.89592839	    108.97440254	    -10.22674088	     37.74853314	    123.73206472	    115.99038817	     99.77695065	     -4.38046012	     24.92204752	    129.72756228	    114.57404029
      6.72000000	    -41.50071479	      2.91835918	      3.31567522	     -0.38427575	      0.65571173	     -0.53391208	    106.69459090	     -5.57710185	      4.19958468	     84.90391184	      1.48185281	     24.82327015	    -12.45026411	     -7.49999987	    104.43679721	    -13.77932857	     -2.47036849	     77.52082876	      1.35299370	     17.09461122	     -1.95806241	     -7.49999987	    -34.79255586	      2.52895292	      2.85249697	    108.94650951	    -10.19946598	     37.70466577	    123.78243999	    115.71251932	     99.82578218	     -4.37070826	     25.07233755	    129.65067663	    115.02079742
      6.73000000	    -41.52507204	      2.86461794	      3.36582599	     -0.38428478	      0.65550587	     -0.53391758	    106.72455304	     -5.65195265	      4.14074744	     84.93307436	      1.48236179	     24.81063662	    -12.48727365	     -7.49999987	    104.50228223	    -13.68753620	     -2.38037413	     77.53715541	      1.35327865	     17.07459946	     -1.97512937	     -7.49999987	    -34.82132640	      2.54971685	      2.77445637	    108.93096321	    -10.12479618	     37.59715086	    123.76294797	    116.08573854	     99.85241639	     -4.40011438	     25.27222698	    129.79467777	    114.49527070
      6.74000000	    -41.57968114	      2.84110183	      3.36236708	     -0.38424068	      0.65532767	     -0.53378882	    106.77834295	     -5.66029999	      4.09097921	     84.93548779	      1.48240391	     24.78883037	    -12.52668565	     -7.49999987	    104.56952405	    -13.66232076	     -2.31318158	     77.54791825	      1.35346650	     17.05277856	     -2.02251125	     -7.49999987	    -34.77965725	      2.50467906	      2.67679220	    108.84476104	    -10.00531073	     37.55721250	    123.75128834	    116.05884090	     99.83068150	     -4.44502467	     25.42628906	    129.92305597	    114.24082161
      6.75000000	    -41.56631859	      2.77080447	      3.31310911	     -0.38421074	      0.65520268	     -0.53352517	    106.76459594	     -5.61558964	      3.99139907	     84.96671095	      1.48294886	     24.95238367	    -12.29779873	     -7.49999987	    104.61116261	    -13.66807287	     -2.14410451	     77.58068561	      1.35403840	     17.06031493	     -2.05998143	     -7.49999987	    -34.76652476	      2.46104636	      2.68746557	    108.73244121	     -9.97657921	     37.44429038	    123.78562574	    115.74316432	     99.80094106	     -4.36786973	     25.32245782	    129.81608236	    115.04049779
      6.76000000	    -41.49963862	      2.70174986	      3.17850858	     -0.38409424	      0.65527929	     -0.53299788	    106.65796087	     -5.45101015	      3.86541636	     84.92294733	      1.48218504	     24.71491139	    -12.68878825	     -7.49999987	    104.59903664	    -13.81467882	     -2.01110635	     77.64124071	      1.35509529	     17.10870806	     -2.01150932	     -7.49999987	    -34.80686816	      2.34512565	      2.77352805	    108.66913609	     -9.98672029	     37.37943589	    123.74431900	    115.84261879	     99.78334242	     -4.31319572	     25.44320822	    129.80980291	    114.82223401
      6.77000000	    -41.43796402	      2.62353969	      3.07713203	     -0.38388260	      0.65539727	     -0.53258245	    106.54911372	     -5.35285115	      3.73348660	     84.90130892	      1.48180738	     24.86504862	    -12.57698662	     -7.49999987	    104.58718638	    -13.93786457	     -1.89170980	     77.69681615	      1.35606526	     17.18166679	     -1.86305260	     -7.49999987	    -34.82028903	      2.26724549	      2.90623372	    108.62391885	     -9.99918558	     37.29104326	    123.78757401	    115.85478552	     99.71853272	     -4.19063347	     25.50744415	    129.75187358	    114.78341077
      6.78000000	    -41.41527532	      2.56217848	      2.99480925	     -0.38359197	      0.65551592	     -0.53223567	    106.48834711	     -5.28250687	      3.61159463	     84.89316874	      1.48166531	     24.83659252	    -12.56528137	     -7.49999987	    104.59355768	    -14.03386609	     -1.77942832	     77.74528672	      1.35691123	     17.27125235	     -1.72400452	     -7.49999987	    -34.77394283	      2.18751345	      2.96780250	    108.56133455	    -10.01652055	     37.25373635	    123.79724882	    115.91748616	     99.68649953	     -4.16836666	     25.62266334	    129.82563466	    114.72067947
      6.79000000	    -41.43500339	      2.52309544	      2.95591369	     -0.38331250	      0.65564636	     -0.53200918	    106.45033852	     -5.28176661	      3.52055555	     84.84459995	      1.48081762	     24.88273464	    -12.35183783	     -7.49999987	    104.60330215	    -14.07169036	     -1.72031285	     77.73640739	      1.35675626	     17.24325271	     -1.72202873	     -7.49999987	    -34.61932384	      2.13117652	      2.95812379	    108.44244756	     -9.96462418	     37.21979280	    123.79030327	    115.76343902	     99.59961281	     -4.19450287	     25.66903990	    129.80587276	    114.99513223
      6.80000000	    -41.42337422	      2.47066351	      2.87513857	     -0.38292525	      0.65587576	     -0.53169622	    106.36559254	     -5.23303261	      3.38654112	     84.80060627	      1.48004979	     24.79527466	    -12.37882727	     -7.49999987	    104.58421985	    -14.15914163	     -1.62354305	     77.75222999	      1.35703241	     17.30267721	     -1.65817623	     -7.49999987	    -34.47403575	      2.07247198	      2.97713980	    108.34057861	     -9.90863030	     37.17962505	    123.72363599	    115.83481669	     99.52291193	     -4.26770738	     25.73548028	    129.86307909	    114.77049354
      6.81000000	    -41.39592525	      2.42403947	      2.78283413	     -0.38245104	      0.65622652	     -0.53134910	    106.24070683	     -5.15844711	      3.27126119	     84.75153411	      1.47919332	     24.88069597	    -12.32897447	     -7.49999987	    104.52375974	    -14.26446950	     -1.55113433	     77.75088758	      1.35700898	     17.39658230	     -1.62335375	     -7.49999987	    -34.31108257	      1.99458289	      3.04718028	    108.25584916	     -9.83550113	     37.08671855	    123.62619242	    115.87548234	     99.37622865	     -4.27922937	     25.74666587	    129.84663838	    114.80516337
      6.82000000	    -41.34499644	      2.36078305	      2.67394330	     -0.38190279	      0.65671481	     -0.53100541	    106.06818301	     -5.04353707	      3.17857538	     84.68601392	      1.47804977	     24.98886699	    -12.32313767	     -7.49999987	    104.43128684	    -14.37717372	     -1.45518346	     77.73117140	      1.35666487	     17.42182131	     -1.64927171	     -7.49999987	    -34.14315658	      1.93788755	      3.10903453	    108.15527438	     -9.72482809	     36.96768124	    123.46425606	    115.93697631	     99.21170907	     -4.32000389	     25.76855379	    129.88890288	    114.58228898
      6.83000000	    -41.43662830	      2.33239120	      2.70489640	     -0.38145262	      0.65712042	     -0.53115477	    106.06677793	     -5.15945889	      3.07167979	     84.60353102	      1.47661018	     24.97329282	    -12.28093196	     -7.49999987	    104.43527308	    -14.31230025	     -1.45354272	     77.65423931	      1.35532215	     17.38719732	     -1.75135445	     -7.49999987	    -33.75752640	      1.91214357	      3.00277560	    107.95548110	     -9.77380007	     36.92562777	    123.29423525	    116.03966219	     99.07847503	     -4.41386501	     25.84251838	    129.90615688	    113.98887804
      6.84000000	    -41.37131614	      2.28227224	      2.66803971	     -0.38081340	      0.65780755	     -0.53125847	    105.86398195	     -5.19456904	      2.97713839	     84.51138399	      1.47500191	     25.12052019	    -12.02147983	     -7.49999987	    104.27882944	    -14.32917260	     -1.40606388	     77.60964793	      1.35454389	     17.54206650	     -1.58737751	     -7.49999987	    -33.53650804	      1.88243095	      3.02053654	    107.90229504	     -9.98101787	     37.00520814	    123.16552049	    115.65584562	     98.95035768	     -4.43719064	     25.68513352	    129.71177191	    115.13143850
      6.85000000	    -41.32458489	      2.20462341	      2.58156224	     -0.38013546	      0.65852700	     -0.53115887	    105.65932198	     -5.15680446	      2.82366443	     84.38674897	      1.47282661	     25.06330016	    -12.14662237	     -7.49999987	    104.16261006	    -14.42024101	     -1.33258083	     77.57096136	      1.35386868	     17.65094371	     -1.49717629	     -7.49999987	    -33.23669301	      1.83555653	      3.03754220	    107.74929719	     -9.97210807	     36.89360864	    122.81220765	    116.04982987	     98.79887311	     -4.47287753	     25.61712960	    129.66042188	    114.48587732
      6.86000000	    -41.26535224	      2.07556541	      2.44919948	     -0.37934394	      0.65939733	     -0.53085069	    105.38223055	     -5.02735496	      2.64355061	     84.21395420	      1.46981078	     25.20564567	    -12.14716032	     -7.49999987	    104.04065340	    -14.57164383	     -1.18797052	     77.52461484	      1.35305978	     17.81906577	     -1.42294441	     -7.49999987	    -32.93446435	      1.81475136	      3.17373563	    107.63310760	     -9.86141081	     36.53099254	    122.46784398	    116.02986899	     98.65906632	     -4.43868656	     25.35358318	    129.45076377	    114.48135036
      6.87000000	    -41.24041835	      2.03409906	      2.39248111	     -0.37847990	      0.66038906	     -0.53076748	    105.18098384	     -4.99450783	      2.55840766	     84.09429588	      1.46772235	     25.20239134	    -12.11747914	     -7.49999987	    103.86900008	    -14.62810350	     -1.17220202	     77.42083094	      1.35124841	     17.82932102	     -1.42824413	     -7.49999987	    -32.57726874	      1.75680305	      3.21184156	    107.60073056	    -10.01449177	     36.37660943	    122.25602588	    115.97951801	     98.56697005	     -4.62888845	     25.24882656	    129.34969655	    114.50227332
